<svg xmlns="http://www.w3.org/2000/svg" viewBox="0 0 182.22 261.55"><defs><style>.cls-1{fill:#232323;}.cls-2{fill:#fff;}.cls-3{fill:#e5001c;}</style></defs><title>palermo-killer1</title><g id="Layer_2" data-name="Layer 2"><g id="Layer_1-2" data-name="Layer 1"><path class="cls-1" d="M182.14,244.25c0,3.46.23,7.84-1.65,10.2-3.78,4.76-9.53,7.08-15.86,7.09-9.66,0-19.32,0-29,0q-57.48,0-114.94,0C6.47,261.51,0,254.94,0,240.73Q0,130.27,0,19.83C0,6.21,6.16,0,19.82,0Q91.28,0,162.75,0c12.75,0,19.41,6.56,19.42,19.34q.09,57.22,0,114.45Q182.22,189,182.14,244.25Z"/><path class="cls-2" d="M125.84,60.69,60.11,53c2.07-6.45,4.12-14,7-21.13a21.57,21.57,0,0,1,6.25-8.17c4.8-4,10.28-3.29,14.74,1.14,5.7,5.66,10,6.19,16.73,2.07,5.67-3.49,12.06-2.33,15.72,3.21a19.15,19.15,0,0,1,3.23,7.71C124.75,45.73,125.23,53.68,125.84,60.69Z"/><path class="cls-2" d="M60,81.54V98.31l-1.3.33c-.94-4.57-2.67-9.15-2.61-13.7.08-5.15-2-7.15-6.48-8.7-5-1.73-10.34-3.41-14.54-9.39,4.2.39,7.21.64,10.22,1,3.55.38,7.14,1.81,10.37-1.35.65-.64,2.52-.35,3.74-.06,21,5,42.28,6.95,63.76,7.51.83,0,2.09-.31,2.43.11,5.2,6.39,13,3.39,19.37,5.55.25.09.4.46,1.45,1.71-4.18,1.4-7.88,3.61-11.66,3.74-8.66.29-14.5,2.86-14.41,12.69,0,.21-.44.42-1.13,1V88.65Z"/><path class="cls-2" d="M71.39,176.91c-12.77-12.62-16.3-29.28-9.77-40.15l21,22.76Z"/><path class="cls-2" d="M116.22,135.43c9.18,9.13,4.35,26.33-8.66,41.46-3.66-5.69-7.32-11.13-10.6-16.79-.4-.7,1-2.86,2-3.86C105.37,149.88,113.12,144.65,116.22,135.43Z"/><path class="cls-3" d="M89.68,237.4a11.54,11.54,0,0,1-1.35-.89c-10.08-10.14-10.1-10.14-7.26-24,1.13-5.53,2.2-11.07,3.52-16.55,1.67-6.92.58-13.06-4.46-18.31-.55-.56-1.39-1.7-1.19-2,2.24-3.54,4-8.1,7.21-10.16,4.06-2.57,7.95,0,10.9,4.39,2.6,3.87,3.11,6.58-.46,10.64a14.59,14.59,0,0,0-2.82,13.08c2.07,8.71,3.29,17.62,5.5,26.29,1.14,4.46.42,7.6-3,10.56C94,232.48,92,235,89.68,237.4Z"/></g></g></svg>