<svg xmlns="http://www.w3.org/2000/svg" viewBox="0 0 182.22 261.55"><defs><style>.cls-1{fill:#232323;}.cls-2{fill:#fff;}.cls-3{fill:#e5001c;}</style></defs><title>palermo-killer2</title><g id="Layer_2" data-name="Layer 2"><g id="Layer_1-2" data-name="Layer 1"><path class="cls-1" d="M182.14,244.25c0,3.46.23,7.84-1.65,10.2-3.78,4.76-9.53,7.08-15.86,7.09-9.66,0-19.32,0-29,0q-57.48,0-114.94,0C6.47,261.51,0,254.94,0,240.73Q0,130.27,0,19.83C0,6.21,6.16,0,19.82,0Q91.28,0,162.75,0c12.75,0,19.41,6.56,19.42,19.34q.09,57.22,0,114.45Q182.22,189,182.14,244.25Z"/><path class="cls-2" d="M125.84,60.69,60.11,53c2.07-6.45,4.12-14,7-21.13a21.57,21.57,0,0,1,6.25-8.17c4.8-4,10.28-3.29,14.74,1.14,5.7,5.66,10,6.19,16.73,2.07,5.67-3.49,12.06-2.33,15.72,3.21a19.15,19.15,0,0,1,3.23,7.71C124.75,45.73,125.23,53.68,125.84,60.69Z"/><path class="cls-2" d="M60,81.54V98.31l-1.3.33c-.94-4.57-2.67-9.15-2.61-13.7.08-5.15-2-7.15-6.48-8.7-5-1.73-10.34-3.41-14.54-9.39,4.2.39,7.21.64,10.22,1,3.55.38,7.14,1.81,10.37-1.35.65-.64,2.52-.35,3.74-.06,21,5,42.28,6.95,63.76,7.51.83,0,2.09-.31,2.43.11,5.2,6.39,13,3.39,19.37,5.55.25.09.4.46,1.45,1.71-4.18,1.4-7.88,3.61-11.66,3.74-8.66.29-14.5,2.86-14.41,12.69,0,.21-.44.42-1.13,1V88.65Z"/><path class="cls-3" d="M83.44,173.36c6.56-6.78,12-6.75,18.88-.06,5.07-2.94,10.17-6,15.37-8.89,5-2.81,7.92-1.11,8,4.72.1,6,.12,12,0,18-.11,5.41-3,7.1-7.73,4.52-5.25-2.88-10.42-5.89-15.62-8.84-5.14,5.76-12.88,6.93-19-.07-5.28,3-10.54,6.15-15.91,9.09-4.53,2.48-7.38.81-7.5-4.44-.14-6.15-.12-12.32,0-18.48.1-5.54,2.93-7.24,7.73-4.61C73,167.16,78.07,170.25,83.44,173.36Z"/><path class="cls-2" d="M124.35,158.32,102.84,170l-3.28-4.7c7-7.92,16.66-13.22,20.31-24C124.35,147.14,126.35,153.08,124.35,158.32Z"/><path class="cls-2" d="M83.33,169.53c-7.19-3.18-14-6.05-20.55-9.23a4.46,4.46,0,0,1-1.73-3.71c.73-5.07,1.86-10.08,2.8-14.9l22,23.88Z"/></g></g></svg>