<svg xmlns="http://www.w3.org/2000/svg" viewBox="0 0 182.22 261.55"><defs><style>.cls-1{fill:#232323;}.cls-2{fill:#fff;}</style></defs><title>palermo-civilian</title><g id="Layer_2" data-name="Layer 2"><g id="Layer_1-2" data-name="Layer 1"><path class="cls-1" d="M182.14,244.25c0,3.46.23,7.84-1.65,10.2-3.78,4.76-9.53,7.08-15.86,7.09-9.66,0-19.32,0-29,0q-57.48,0-114.94,0C6.47,261.51,0,254.94,0,240.73Q0,130.27,0,19.83C0,6.21,6.16,0,19.82,0Q91.28,0,162.75,0c12.75,0,19.41,6.56,19.42,19.34q.09,57.22,0,114.45Q182.22,189,182.14,244.25Z"/><path class="cls-2" d="M53.67,43.1c-.17-2.33-.35-4.65-.5-7-.51-7.9.79-10.36,8.17-13.43,11.13-4.62,22.93-5.84,34.78-4.82A113.56,113.56,0,0,1,119,22.3c8.51,2.57,9.92,5.67,9.35,14.45a129.19,129.19,0,0,0-.47,15.48c.35,6.42-2.93,9.91-8.32,12.12-12.34,5.05-25.26,5.79-38.28,4.43a85.08,85.08,0,0,1-17.93-4c-7.79-2.59-9.38-5.45-9.48-13.71,0-2.66,0-5.32,0-8Z"/><path class="cls-2" d="M81.44,173.36c6.56-6.78,12-6.75,18.88-.06,5.07-2.94,10.17-6,15.37-8.89,5-2.81,7.92-1.11,8,4.72.1,6,.12,12,0,18-.11,5.41-3,7.1-7.73,4.52-5.25-2.88-10.42-5.89-15.62-8.84-5.14,5.76-12.88,6.93-19-.07-5.28,3-10.54,6.15-15.91,9.09-4.53,2.48-7.38.81-7.5-4.44-.14-6.15-.12-12.32,0-18.48.1-5.54,2.93-7.24,7.73-4.61C71,167.16,76.07,170.25,81.44,173.36Z"/><path class="cls-2" d="M61.05,83v18.11l-1.32.26c-.91-4.5-2.59-9-2.52-13.5.08-5.37-2-8.27-6.39-11s-8-6.81-8.16-13.76C47.75,65,53.21,63.63,56,69.49c.63,1.34,2.86,2.24,4.54,2.72a107.93,107.93,0,0,0,60.51,0c1.54-.44,3.74-1.12,4.23-2.28,2.52-6,8.26-4.85,12.6-6.75l1.52.93c-1,2.5-2.06,5-3.19,7.49a3.78,3.78,0,0,1-1.52,1.93c-10.14,4.5-10.33,14-11.74,22.94a7.85,7.85,0,0,1-2.31,4.62v-18C93.36,89.46,81.56,87.75,61.05,83Z"/><path class="cls-2" d="M122.35,158.32,100.84,170l-3.28-4.7c7-7.92,16.66-13.22,20.31-24C122.35,147.14,124.35,153.08,122.35,158.32Z"/><path class="cls-2" d="M81.33,169.53c-7.19-3.18-14-6.05-20.55-9.23a4.46,4.46,0,0,1-1.73-3.71c.73-5.07,1.86-10.08,2.8-14.9l22,23.88Z"/><path class="cls-2" d="M106.75,115.45a9.24,9.24,0,0,1-8.88-9.38,9.37,9.37,0,0,1,9.53-8.8,9.12,9.12,0,0,1,8.78,9.47A8.85,8.85,0,0,1,106.75,115.45ZM107,114a8.18,8.18,0,0,0,7.73-7.61c0-3.93-3.67-7.45-7.77-7.4a7.12,7.12,0,0,0-7.25,7.19A7.61,7.61,0,0,0,107,114Z"/><path class="cls-1" d="M107,114a7.61,7.61,0,0,1-7.29-7.82A7.12,7.12,0,0,1,107,99c4.1,0,7.79,3.47,7.77,7.4A8.18,8.18,0,0,1,107,114Z"/></g></g></svg>