<svg xmlns="http://www.w3.org/2000/svg" viewBox="0 0 182.22 261.55"><defs><style>.cls-1{fill:#232323;}.cls-2{fill:#0068ff;}</style></defs><title>palermo-cop</title><g id="Layer_2" data-name="Layer 2"><g id="Layer_1-2" data-name="Layer 1"><path class="cls-1" d="M182.2,133.8q0-57.23,0-114.45C182.16,6.57,175.5,0,162.75,0Q91.28,0,19.82,0C6.16,0,0,6.21,0,19.83q0,110.44,0,220.9c0,14.21,6.47,20.78,20.71,20.79q57.47.06,114.94,0c9.66,0,19.32,0,29,0,6.33,0,12.08-2.33,15.86-7.09,1.88-2.36,1.64-6.74,1.65-10.2Q182.31,189,182.2,133.8ZM87,18.33c6.1,0,12.46-.15,18.25,1.42C119,23.51,128,36.87,127.94,51.42c0,3-1.12,4.27-3.7,4.77-11,2.13-22.06,4.22-33.29,6.36-11.17-2.13-22-4.24-32.91-6.26-3.14-.58-4.2-2.14-4.14-5.44C54.27,32.18,68.25,18.19,87,18.33ZM63.52,135.59c2.94,8.86,10,14.25,16.58,19.86,3.82,3.26,4,5.51,1.08,9.27-3.12,4-5.63,8.52-8.68,13.25C60.92,164.93,53.53,146,63.52,135.59ZM95.6,189.76c2.08,7.85,3.4,15.89,5.39,23.76.75,2.94.35,5-1.82,7.09-2.74,2.63-5.23,5.53-8.23,8.75-3.36-3.6-6.52-6.58-9.12-10a7.52,7.52,0,0,1-.88-5.39q2.48-12.44,5.51-24.75c1.38-5.65-.45-10.37-3.42-15-.89-1.38-2.44-3.53-2-4.38,1.86-3.38,3.76-7.6,6.84-9.23,4.74-2.51,13.62,4.64,13.45,10.1,0,1-1.12,2-1.82,2.85C95.79,178.42,94,183.49,95.6,189.76ZM109.53,178c-4-6.11-7.78-12-11.77-18.16,7.18-8.24,16.93-13.54,20.49-24.11C127.72,144.48,122.67,162.48,109.53,178ZM129.6,71.27a8,8,0,0,0-4.34,7c-.5,5.61-1.75,11.15-2.69,16.72L121,94.77V76A105.6,105.6,0,0,1,61,76V94.71l-1.68.21c-.86-5.06-2.08-10.1-2.46-15.2-.29-4-1.37-6.61-5-8.75-5.09-3-9-7.29-9.86-13.57,4.46-1.47,10.42.78,12.73,4.05a10.06,10.06,0,0,0,5,3.66,110.51,110.51,0,0,0,62.48,0c1.77-.51,4-1.71,4.7-3.2,2.67-5.91,8.06-4.11,13.16-6C139.07,63.71,135,68.05,129.6,71.27Z"/><polygon class="cls-2" points="123.36 180.57 126.23 186.39 132.66 187.32 128.01 191.86 129.11 198.26 123.36 195.24 117.61 198.26 118.71 191.86 114.06 187.32 120.49 186.39 123.36 180.57"/></g></g></svg>